# Wavefront OBJ file written 2026-08-12T16:07:55
o Cylinder_edgeMesh

# points : 112
# lines  : 112

# <points count="112">
v 2.49592 0.142722 5
v 2.5 3.06162e-16 5
v 2.49592 -0.142722 0
v 2.5 9.18485e-16 0
v 2.49592 -0.142722 5
v 2.46339 -0.426306 5
v 2.46339 -0.426306 0
v 2.39873 -0.704331 5
v 2.39873 -0.704331 0
v 2.30281 -0.973175 5
v 2.30281 -0.973175 0
v 2.17687 -1.22933 5
v 2.17687 -1.22933 0
v 2.02254 -1.46946 5
v 2.02254 -1.46946 0
v 1.84185 -1.69044 5
v 1.84185 -1.69044 0
v 1.63715 -1.88937 5
v 1.63715 -1.88937 0
v 1.41111 -2.06368 5
v 1.41111 -2.06368 0
v 1.16667 -2.21108 5
v 1.16667 -2.21108 0
v 0.907019 -2.32966 5
v 0.907019 -2.32966 0
v 0.635546 -2.41787 5
v 0.635546 -2.41787 0
v 0.355787 -2.47455 5
v 0.355787 -2.47455 0
v 0.0713901 -2.49898 5
v 0.0713901 -2.49898 0
v -0.213938 -2.49083 5
v -0.213938 -2.49083 0
v -0.496476 -2.45021 5
v -0.496476 -2.45021 0
v -0.772542 -2.37764 5
v -0.772542 -2.37764 0
v -1.03854 -2.27408 5
v -1.03854 -2.27408 0
v -1.29099 -2.14087 5
v -1.29099 -2.14087 0
v -1.52662 -1.97976 5
v -1.52662 -1.97976 0
v -1.74234 -1.79283 5
v -1.74234 -1.79283 0
v -1.93535 -1.58253 5
v -1.93535 -1.58253 0
v -2.10313 -1.3516 5
v -2.10313 -1.3516 0
v -2.2435 -1.10305 5
v -2.2435 -1.10305 0
v -2.35461 -0.840123 5
v -2.35461 -0.840123 0
v -2.43503 -0.566242 5
v -2.43503 -0.566242 0
v -2.4837 -0.284979 5
v -2.4837 -0.284979 0
v -2.5 0 5
v -2.5 0 0
v -2.4837 0.284979 5
v -2.4837 0.284979 0
v -2.43503 0.566242 5
v -2.43503 0.566242 0
v -2.35461 0.840123 5
v -2.35461 0.840123 0
v -2.2435 1.10305 5
v -2.2435 1.10305 0
v -2.10313 1.3516 5
v -2.10313 1.3516 0
v -1.93535 1.58253 5
v -1.93535 1.58253 0
v -1.74234 1.79283 5
v -1.74234 1.79283 0
v -1.52662 1.97976 5
v -1.52662 1.97976 0
v -1.29099 2.14087 5
v -1.29099 2.14087 0
v -1.03854 2.27408 5
v -1.03854 2.27408 0
v -0.772542 2.37764 5
v -0.772542 2.37764 0
v -0.496476 2.45021 5
v -0.496476 2.45021 0
v -0.213938 2.49083 5
v -0.213938 2.49083 0
v 0.0713901 2.49898 5
v 0.0713901 2.49898 0
v 0.355787 2.47455 5
v 0.355787 2.47455 0
v 0.635546 2.41787 5
v 0.635546 2.41787 0
v 0.907019 2.32966 5
v 0.907019 2.32966 0
v 1.16667 2.21108 5
v 1.16667 2.21108 0
v 1.41111 2.06368 5
v 1.41111 2.06368 0
v 1.63715 1.88937 5
v 1.63715 1.88937 0
v 1.84185 1.69044 5
v 1.84185 1.69044 0
v 2.02254 1.46946 5
v 2.02254 1.46946 0
v 2.17687 1.22933 5
v 2.17687 1.22933 0
v 2.30281 0.973175 5
v 2.30281 0.973175 0
v 2.39873 0.704331 5
v 2.39873 0.704331 0
v 2.46339 0.426306 5
v 2.46339 0.426306 0
v 2.49592 0.142722 0
# </points>

# <edges count="112">
l 1 2
l 3 4
l 2 5
l 5 6
l 7 3
l 6 8
l 9 7
l 8 10
l 11 9
l 10 12
l 13 11
l 12 14
l 15 13
l 14 16
l 17 15
l 16 18
l 19 17
l 18 20
l 21 19
l 20 22
l 23 21
l 22 24
l 25 23
l 24 26
l 27 25
l 26 28
l 29 27
l 28 30
l 31 29
l 30 32
l 33 31
l 32 34
l 35 33
l 34 36
l 37 35
l 36 38
l 39 37
l 38 40
l 41 39
l 40 42
l 43 41
l 42 44
l 45 43
l 44 46
l 47 45
l 46 48
l 49 47
l 48 50
l 51 49
l 50 52
l 53 51
l 52 54
l 55 53
l 54 56
l 57 55
l 56 58
l 59 57
l 58 60
l 61 59
l 60 62
l 63 61
l 62 64
l 65 63
l 64 66
l 67 65
l 66 68
l 69 67
l 68 70
l 71 69
l 70 72
l 73 71
l 72 74
l 75 73
l 74 76
l 77 75
l 76 78
l 79 77
l 78 80
l 81 79
l 80 82
l 83 81
l 82 84
l 85 83
l 84 86
l 87 85
l 86 88
l 89 87
l 88 90
l 91 89
l 90 92
l 93 91
l 92 94
l 95 93
l 94 96
l 97 95
l 96 98
l 99 97
l 98 100
l 101 99
l 100 102
l 103 101
l 102 104
l 105 103
l 104 106
l 107 105
l 106 108
l 109 107
l 108 110
l 111 109
l 110 1
l 112 111
l 4 112
# </edges>
